<?xml version="1.0" encoding="UTF-8" standalone="no"?>
<svg
   xmlns:dc="http://purl.org/dc/elements/1.1/"
   xmlns:cc="http://creativecommons.org/ns#"
   xmlns:rdf="http://www.w3.org/1999/02/22-rdf-syntax-ns#"
   xmlns:svg="http://www.w3.org/2000/svg"
   xmlns="http://www.w3.org/2000/svg"
   xmlns:sodipodi="http://sodipodi.sourceforge.net/DTD/sodipodi-0.dtd"
   xmlns:inkscape="http://www.inkscape.org/namespaces/inkscape"
   inkscape:version="1.0 (4035a4fb49, 2020-05-01)"
   sodipodi:docname="house.svg"
   xml:space="preserve"
   style="enable-background:new 0 0 512 512;"
   viewBox="0 0 512 512"
   y="0px"
   x="0px"
   id="Calque_1"
   version="1.1"><metadata
   id="metadata33"><rdf:RDF><cc:Work
       rdf:about=""><dc:format>image/svg+xml</dc:format><dc:type
         rdf:resource="http://purl.org/dc/dcmitype/StillImage" /></cc:Work></rdf:RDF></metadata><defs
   id="defs31">
	
	
	
	
	
	
	
	
	
	
	
</defs><sodipodi:namedview
   inkscape:current-layer="Calque_1"
   inkscape:window-maximized="1"
   inkscape:window-y="-8"
   inkscape:window-x="-8"
   inkscape:cy="226.07803"
   inkscape:cx="-7.7993718"
   inkscape:zoom="0.65429688"
   showgrid="false"
   id="namedview29"
   inkscape:window-height="837"
   inkscape:window-width="1600"
   inkscape:pageshadow="2"
   inkscape:pageopacity="0"
   guidetolerance="10"
   gridtolerance="10"
   objecttolerance="10"
   borderopacity="1"
   bordercolor="#666666"
   pagecolor="#ffffff"
   inkscape:document-rotation="0" />
<style
   id="style2"
   type="text/css">
	.st0{fill:#FEFEFE;}
	.st1{fill:#9CAA63;}
	.st2{fill:#D73030;}
	.st3{fill:#FB7963;}
	.st4{fill:#CBCBCB;}
	.st5{fill:#CEE19A;}
	.st6{fill:#A56767;}
	.st7{fill:#CB9999;}
	.st8{fill:#435968;}
</style>
<path
   style="stroke-width:1.37001"
   class="st1"
   d="m 373.53388,182.44902 c 40.45651,27.19478 80.91301,54.38955 121.36952,81.61172 1.0823,0.72612 2.56192,1.12341 2.84962,2.72633 -4.76764,3.30172 -9.56269,6.56237 -14.28925,9.91889 -44.04593,31.29112 -88.07817,62.59593 -132.11041,93.91445 -22.64632,16.09766 -45.16936,32.37342 -67.96639,48.23818 -8.91878,6.20616 -17.37177,13.11102 -26.87966,18.48148 -0.0411,-15.56334 -0.12331,-31.11301 -0.0548,-46.67637 0.0136,-2.61672 -0.6165,-4.39774 -2.87702,-5.98696 -43.45683,-30.7157 -86.87258,-61.4862 -130.28831,-92.28411 -6.39796,-4.53475 -12.98773,-8.86399 -18.97469,-13.89195 -6.288359,-5.27455 -5.493754,-12.98773 1.20562,-17.65947 1.53441,-1.08231 3.06883,-2.17832 4.65804,-3.16474 10.1381,-6.24726 19.2213,-14.12484 29.89369,-19.5638 0.0411,10.23401 0.0959,20.48172 0.12331,30.71572 0,2.05501 -0.0959,3.94564 2.00022,5.38415 10.82312,7.42547 21.56401,14.97425 32.33232,22.48193 13.43984,9.76819 26.81118,19.65969 40.73051,28.77028 12.91923,10.20661 26.66048,19.24869 40.0318,28.8251 1.94542,1.78101 3.17844,-0.20551 4.37035,-1.04122 36.51086,-25.82476 72.95323,-51.74541 109.47779,-77.54277 2.68523,-1.90433 3.60314,-3.94564 3.58944,-7.20628 -0.13701,-26.70156 -0.0959,-53.40313 -0.0411,-80.091 0.0136,-2.02762 -0.68501,-4.17854 0.84941,-5.95956 z"
   id="path6" /><path
   style="fill:#0d47a1;fill-opacity:1;stroke-width:1.37001"
   class="st2"
   d="m 256.52101,13.197527 c 13.02883,8.452984 25.09865,18.193782 37.56578,27.400274 38.73028,28.605887 77.37836,57.321373 116.06756,85.995759 1.08231,0.80831 2.12351,1.69881 3.58943,2.89074 -13.97414,9.48049 -27.68798,18.78288 -41.40181,28.09898 -1.47962,0.82201 -3.01403,1.5618 -4.42514,2.49342 -31.88022,21.12561 -63.70564,42.33342 -95.65437,63.36313 -5.20604,3.42503 -9.94629,7.68578 -16.02916,9.6586 0.0685,-11.43961 0.16441,-22.89293 0.1781,-34.33254 0.0411,-61.85613 0.0685,-123.712244 0.10961,-185.568363 z"
   id="path8" /><path
   style="fill:#75aef0;fill-opacity:1;stroke-width:1.37001"
   class="st3"
   d="m 256.52101,13.197527 c -0.0411,61.856119 -0.0685,123.712233 -0.10961,185.554653 -0.0136,11.43962 -0.12329,22.89294 -0.1781,34.33255 -1.49331,-0.7946 -3.06883,-1.47962 -4.47994,-2.41123 -24.49585,-16.20725 -48.92319,-32.51041 -73.47384,-48.62179 -12.54932,-8.23378 -24.71504,-17.09777 -37.75758,-24.57804 -11.0149,-8.39818 -22.92032,-15.46745 -34.37364,-23.22172 -2.12352,-1.43853 -4.24704,-2.84964 -7.082973,-4.75396 4.315543,-3.21953 8.315993,-6.19246 12.316433,-9.16539 47.21066,-35.031251 94.43504,-70.076203 141.65941,-105.093753 1.08231,-0.780907 2.31532,-1.356313 3.47984,-2.04132 z"
   id="path10" /><path
   style="stroke-width:1.37001"
   class="st4"
   d="m 140.50825,157.47367 c 13.04252,7.49398 25.19454,16.34426 37.75757,24.57804 24.56435,16.11138 48.978,32.42823 73.47384,48.62179 1.41111,0.93161 2.98663,1.61663 4.47995,2.41123 6.08286,-1.97282 10.83681,-6.23357 16.02916,-9.6586 31.94872,-21.02971 63.77413,-42.23752 95.65435,-63.36313 1.41112,-0.93161 2.94553,-1.67143 4.42515,-2.49343 0.0685,6.30207 0.1507,12.60412 0.20551,18.90619 0.0136,2.04132 -0.16442,4.11004 0.9864,5.95956 -1.53441,1.79472 -0.8357,3.94564 -0.8357,5.91846 -0.0548,26.70157 -0.0959,53.40313 0.0411,80.09101 0.0136,3.26062 -0.90421,5.30195 -3.58943,7.20626 -36.52457,25.79737 -72.96694,51.71802 -109.4778,77.54277 -1.17821,0.83572 -2.42493,2.83594 -4.37034,1.04122 1.78102,-1.46591 1.08232,-3.47983 1.09601,-5.27455 0.0411,-28.56478 -0.0275,-57.11587 0.0959,-85.68066 0.0136,-3.47984 -1.09601,-5.53485 -4.04153,-7.48027 -35.90807,-23.68754 -71.73392,-47.51208 -107.57349,-71.29552 -1.4111,-0.94531 -2.76742,-2.04132 -4.60323,-2.04132 l 0.0548,0.0411 c 0.0685,-8.32969 0.13701,-16.67307 0.19182,-25.03015 z m 161.2506,123.99994 c 11.75473,-8.30228 22.48193,-15.91955 33.25024,-23.44093 1.93173,-1.35631 1.64402,-3.20583 1.64402,-5.05534 0.0136,-7.8776 0.0685,-15.74147 -0.0275,-23.61905 -0.0275,-2.58932 0.60281,-5.30195 -0.8083,-8.30228 -11.05601,7.34327 -21.71472,14.43994 -32.40082,21.48181 -1.30152,0.86311 -1.69883,1.95912 -1.68513,3.45244 0.0411,11.42592 0.0275,22.85182 0.0275,35.48335 z"
   id="path12" /><path
   style="stroke-width:1.37001"
   class="st5"
   d="m 140.08354,238.08528 c -10.67241,5.43895 -19.7419,13.31654 -29.8937,19.5638 -1.60291,0.98641 -3.12363,2.09613 -4.65805,3.16473 -6.699358,4.68544 -7.493976,12.38492 -1.20562,17.65947 6.00067,5.02796 12.57675,9.35719 18.9747,13.89195 43.40203,30.7842 86.81778,61.56841 130.28831,92.28412 2.24682,1.58922 2.87702,3.37023 2.87702,5.98696 -0.0685,15.56336 0.0136,31.11301 0.0548,46.67636 0,0 -0.10961,0.0411 -0.10961,0.0411 -0.6439,-0.21921 -1.38371,-0.28771 -1.90432,-0.6576 C 225.1477,415.91309 195.8157,395.10257 166.48371,374.27837 116.0261,338.46621 65.568494,302.62665 15.124589,266.80079 c 1.342613,-2.60303 4.09634,-3.49353 6.315762,-4.98685 37.82608,-25.52336 75.693263,-51.00561 113.574139,-76.44676 1.65771,-1.10972 3.09623,-2.76744 5.32935,-2.87704 0,0 -0.0548,-0.0411 -0.0548,-0.0411 -0.0821,18.56369 -0.15071,37.09997 -0.2055,55.63626 z"
   id="path14" /><path
   style="stroke-width:1.37001"
   class="st6"
   d="m 256.52101,437.31267 c 9.5079,-5.35675 17.96087,-12.26163 26.87966,-18.48148 22.79703,-15.87846 45.32006,-32.14053 67.96639,-48.23819 44.03223,-31.3048 88.06448,-62.62333 132.11043,-93.91443 4.72653,-3.35654 9.52159,-6.61717 14.28924,-9.9189 0.0959,18.63218 0.1507,37.26438 0.31509,55.89656 0.0275,2.61672 -1.84951,3.42503 -3.47982,4.57584 -45.42966,32.23642 -90.85932,64.47285 -136.28897,96.69558 -32.46933,23.02992 -64.95235,46.05985 -97.43538,69.07608 -1.37002,0.97272 -2.87703,1.73992 -4.32924,2.61672 -0.0411,-19.42679 -0.0823,-38.85357 -0.1233,-58.28038 z"
   id="path16" /><path
   style="stroke-width:1.37001"
   class="st7"
   d="m 256.4114,437.36748 c 0.0411,19.42679 0.0823,38.85358 0.1233,58.28038 -15.39895,-10.74091 -30.85271,-21.39962 -46.16946,-32.25012 -45.18305,-31.98982 -90.325,-64.06184 -135.466959,-96.09276 -18.947284,-13.45354 -37.894573,-26.90708 -56.869263,-40.3195 -1.712518,-1.20562 -3.205833,-2.21944 -3.192132,-4.75396 0.164401,-18.46778 0.205502,-36.93556 0.274002,-55.40335 50.457606,35.82585 100.901512,71.65171 151.359122,107.47758 29.33198,20.8242 58.67769,41.62101 88.02338,62.41782 0.5343,0.3562 1.27411,0.4247 1.91801,0.64391 z"
   id="path18" /><path
   style="stroke-width:1.37001"
   class="st0"
   d="m 140.08354,238.08528 c 0.0685,-18.53629 0.1233,-37.07257 0.1918,-55.60887 1.83583,0 3.17843,1.10972 4.60325,2.04134 35.83956,23.78343 71.66541,47.62168 107.57348,71.29551 2.94553,1.94542 4.05524,4.00044 4.04154,7.48027 -0.1233,28.56479 -0.0548,57.11587 -0.0959,85.68066 0,1.79472 0.685,3.80864 -1.096,5.27455 -13.37135,-9.57639 -27.12628,-18.61848 -40.03181,-28.82509 0.1918,-15.90586 0.548,-31.82542 0.49321,-47.73128 -0.0411,-10.8094 -4.39775,-19.9063 -12.38493,-27.20847 -5.46636,-4.98685 -11.69991,-7.24737 -18.83768,-4.19223 -7.35699,3.15102 -10.00111,9.31608 -9.97371,16.98816 0.0411,11.12451 -0.0136,22.24903 -0.0275,33.38723 -10.7683,-7.50767 -21.50922,-15.05644 -32.33231,-22.48192 -2.09613,-1.43851 -2.00022,-3.32913 -2.00022,-5.38415 -0.0411,-10.234 -0.0823,-20.46801 -0.12331,-30.71571 z"
   id="path20" /><path
   style="stroke-width:1.37001"
   class="st8"
   d="m 174.52568,296.66706 c 0.0136,-11.12451 0.0685,-22.24901 0.0275,-33.38723 -0.0275,-7.67208 2.60302,-13.83714 9.9737,-16.98816 7.13777,-3.05514 13.37133,-0.80832 18.83769,4.19223 7.98717,7.30217 12.34382,16.39907 12.38492,27.20847 0.0548,15.90586 -0.3151,31.82542 -0.4932,47.73128 -13.91934,-9.09688 -27.27697,-18.98838 -40.73051,-28.75659 z"
   id="path22" /><path
   style="stroke-width:1.37001"
   class="st8"
   d="m 301.75885,281.47361 c 0,-12.64522 0.0136,-24.07114 -0.0136,-35.49706 0,-1.4933 0.3836,-2.58931 1.68511,-3.45242 10.68611,-7.05558 21.34482,-14.15224 32.40083,-21.48182 1.39742,3.00032 0.78091,5.72666 0.80831,8.30228 0.0822,7.87758 0.0411,15.74146 0.0275,23.61903 0,1.84952 0.28769,3.69905 -1.64403,5.05537 -10.7957,7.54876 -21.50921,15.15234 -33.26392,23.45462 z"
   id="path24" />
</svg>
